<mxfile host="65bd71144e">
    <diagram id="OU0lpFzPtXRKVZ1gvNnJ" name="Page-1">
        <mxGraphModel dx="1616" dy="929" grid="0" gridSize="10" guides="1" tooltips="1" connect="1" arrows="1" fold="1" page="1" pageScale="1" pageWidth="2000" pageHeight="2000" background="#FFFFFF" math="0" shadow="0">
            <root>
                <mxCell id="0"/>
                <mxCell id="1" parent="0"/>
                <mxCell id="35" value="" style="edgeStyle=orthogonalEdgeStyle;rounded=0;orthogonalLoop=1;jettySize=auto;html=1;fontColor=#030303;strokeColor=#030303;" parent="1" source="8" target="34" edge="1">
                    <mxGeometry relative="1" as="geometry"/>
                </mxCell>
                <mxCell id="49" style="edgeStyle=orthogonalEdgeStyle;rounded=0;orthogonalLoop=1;jettySize=auto;html=1;entryX=0;entryY=0.5;entryDx=0;entryDy=0;fontColor=#030303;endArrow=none;endFill=0;strokeColor=#030303;" parent="1" source="8" target="23" edge="1">
                    <mxGeometry relative="1" as="geometry">
                        <Array as="points">
                            <mxPoint x="170" y="495"/>
                            <mxPoint x="170" y="294"/>
                            <mxPoint x="324" y="294"/>
                        </Array>
                    </mxGeometry>
                </mxCell>
                <mxCell id="51" style="edgeStyle=orthogonalEdgeStyle;rounded=0;orthogonalLoop=1;jettySize=auto;html=1;entryX=0;entryY=0.5;entryDx=0;entryDy=0;fontColor=#030303;endArrow=none;endFill=0;strokeColor=#030303;" parent="1" source="8" target="32" edge="1">
                    <mxGeometry relative="1" as="geometry">
                        <Array as="points">
                            <mxPoint x="169" y="495"/>
                            <mxPoint x="169" y="412"/>
                        </Array>
                    </mxGeometry>
                </mxCell>
                <mxCell id="52" style="edgeStyle=orthogonalEdgeStyle;rounded=0;orthogonalLoop=1;jettySize=auto;html=1;fontColor=#030303;endArrow=none;endFill=0;strokeColor=#030303;entryX=0;entryY=0.5;entryDx=0;entryDy=0;" parent="1" source="8" target="33" edge="1">
                    <mxGeometry relative="1" as="geometry">
                        <mxPoint x="159" y="551" as="targetPoint"/>
                        <Array as="points">
                            <mxPoint x="168" y="495"/>
                            <mxPoint x="168" y="552"/>
                        </Array>
                    </mxGeometry>
                </mxCell>
                <mxCell id="8" value="&lt;font color=&quot;#030303&quot;&gt;Registered User&lt;/font&gt;" style="shape=umlActor;verticalLabelPosition=bottom;verticalAlign=top;html=1;fillColor=none;strokeColor=#030303;" parent="1" vertex="1">
                    <mxGeometry x="66" y="465" width="30" height="60" as="geometry"/>
                </mxCell>
                <mxCell id="18" value="" style="swimlane;startSize=0;fillColor=#0050ef;fontColor=#ffffff;strokeColor=#001DBC;swimlaneLine=0;" parent="1" vertex="1">
                    <mxGeometry x="249" y="78" width="770" height="760" as="geometry">
                        <mxRectangle x="30" y="290" width="50" height="40" as="alternateBounds"/>
                    </mxGeometry>
                </mxCell>
                <mxCell id="22" value="create Account" style="ellipse;whiteSpace=wrap;html=1;fillColor=none;fontColor=#030303;labelBorderColor=none;strokeColor=#030303;" parent="18" vertex="1">
                    <mxGeometry x="70" y="51" width="140" height="70" as="geometry"/>
                </mxCell>
                <mxCell id="60" value="&lt;span style=&quot;background-color: rgb(255 , 255 , 255)&quot;&gt;&lt;font color=&quot;#030303&quot;&gt;&amp;lt;&amp;lt;extend&amp;gt;&amp;gt;&lt;/font&gt;&lt;/span&gt;" style="edgeStyle=orthogonalEdgeStyle;rounded=0;orthogonalLoop=1;jettySize=auto;html=1;dashed=1;startArrow=classic;startFill=1;endArrow=none;endFill=0;strokeColor=#030303;" edge="1" parent="18" source="23" target="59">
                    <mxGeometry x="0.025" y="15" relative="1" as="geometry">
                        <mxPoint as="offset"/>
                    </mxGeometry>
                </mxCell>
                <mxCell id="23" value="&lt;font color=&quot;#030303&quot;&gt;Login into Account/ with email address&lt;/font&gt;" style="ellipse;whiteSpace=wrap;html=1;fillColor=none;strokeColor=#000000;" parent="18" vertex="1">
                    <mxGeometry x="84" y="181" width="140" height="70" as="geometry"/>
                </mxCell>
                <mxCell id="32" value="&lt;font color=&quot;#030303&quot;&gt;read email&lt;/font&gt;" style="ellipse;whiteSpace=wrap;html=1;fillColor=none;strokeColor=#000000;" parent="18" vertex="1">
                    <mxGeometry x="70" y="304" width="140" height="70" as="geometry"/>
                </mxCell>
                <mxCell id="47" value="&lt;span style=&quot;background-color: rgb(255 , 255 , 255)&quot;&gt;&amp;lt;&amp;lt;extend&amp;gt;&amp;gt;&lt;/span&gt;" style="edgeStyle=orthogonalEdgeStyle;rounded=0;orthogonalLoop=1;jettySize=auto;html=1;fontColor=#030303;endArrow=none;endFill=0;startArrow=classic;startFill=1;dashed=1;strokeColor=#030303;" parent="18" source="33" target="46" edge="1">
                    <mxGeometry x="0.396" y="16" relative="1" as="geometry">
                        <mxPoint as="offset"/>
                        <Array as="points">
                            <mxPoint x="238" y="479"/>
                            <mxPoint x="238" y="416"/>
                        </Array>
                    </mxGeometry>
                </mxCell>
                <mxCell id="33" value="&lt;font color=&quot;#030303&quot;&gt;write Email&lt;/font&gt;" style="ellipse;whiteSpace=wrap;html=1;fillColor=none;strokeColor=#000000;" parent="18" vertex="1">
                    <mxGeometry x="75" y="444" width="140" height="70" as="geometry"/>
                </mxCell>
                <mxCell id="46" value="&lt;font color=&quot;#030303&quot;&gt;sent email&lt;/font&gt;" style="ellipse;whiteSpace=wrap;html=1;fillColor=none;strokeColor=#000000;" parent="18" vertex="1">
                    <mxGeometry x="311" y="381" width="140" height="70" as="geometry"/>
                </mxCell>
                <mxCell id="54" value="&lt;font color=&quot;#030303&quot;&gt;save email for later&lt;/font&gt;" style="ellipse;whiteSpace=wrap;html=1;fillColor=none;strokeColor=#000000;" parent="18" vertex="1">
                    <mxGeometry x="311" y="501" width="140" height="70" as="geometry"/>
                </mxCell>
                <mxCell id="56" value="&lt;span style=&quot;background-color: rgb(255 , 255 , 255)&quot;&gt;&amp;lt;&amp;lt;extend&amp;gt;&amp;gt;&lt;/span&gt;" style="edgeStyle=orthogonalEdgeStyle;rounded=0;orthogonalLoop=1;jettySize=auto;html=1;entryX=1;entryY=1;entryDx=0;entryDy=0;dashed=1;fontColor=#030303;startArrow=none;startFill=0;endArrow=classic;endFill=1;strokeColor=#030303;" parent="18" source="54" target="33" edge="1">
                    <mxGeometry x="-0.355" y="-10" relative="1" as="geometry">
                        <mxPoint x="-10" y="10" as="offset"/>
                    </mxGeometry>
                </mxCell>
                <mxCell id="26" value="Sent Forward" style="text;html=1;align=center;verticalAlign=middle;resizable=0;points=[];autosize=1;fontColor=#030303;" parent="18" vertex="1">
                    <mxGeometry x="336" y="5" width="90" height="20" as="geometry"/>
                </mxCell>
                <mxCell id="58" value="&lt;font color=&quot;#000000&quot; style=&quot;background-color: rgb(255 , 255 , 255)&quot;&gt;&amp;lt;&amp;lt;include&amp;gt;&amp;gt;&lt;/font&gt;" style="edgeStyle=orthogonalEdgeStyle;rounded=0;orthogonalLoop=1;jettySize=auto;html=1;entryX=1;entryY=0.5;entryDx=0;entryDy=0;strokeColor=#030303;dashed=1;startArrow=classic;startFill=1;endArrow=none;endFill=0;" edge="1" parent="18" source="57" target="22">
                    <mxGeometry x="-0.0421" y="-8" relative="1" as="geometry">
                        <mxPoint x="8" y="-8" as="offset"/>
                    </mxGeometry>
                </mxCell>
                <mxCell id="57" value="&lt;font color=&quot;#030303&quot;&gt;define Account name and password&lt;/font&gt;" style="ellipse;whiteSpace=wrap;html=1;fillColor=none;strokeColor=#000000;" vertex="1" parent="18">
                    <mxGeometry x="327" y="51" width="140" height="70" as="geometry"/>
                </mxCell>
                <mxCell id="59" value="&lt;font color=&quot;#030303&quot;&gt;Login into account&lt;/font&gt;" style="ellipse;whiteSpace=wrap;html=1;fillColor=none;strokeColor=#000000;" vertex="1" parent="18">
                    <mxGeometry x="304" y="181" width="140" height="70" as="geometry"/>
                </mxCell>
                <mxCell id="61" value="&lt;font color=&quot;#030303&quot;&gt;manage calender&lt;/font&gt;" style="ellipse;whiteSpace=wrap;html=1;fillColor=none;strokeColor=#000000;" vertex="1" parent="18">
                    <mxGeometry x="75" y="614" width="140" height="70" as="geometry"/>
                </mxCell>
                <mxCell id="43" style="edgeStyle=orthogonalEdgeStyle;rounded=0;orthogonalLoop=1;jettySize=auto;html=1;entryX=0;entryY=0.5;entryDx=0;entryDy=0;fontColor=#030303;strokeColor=#030303;endArrow=none;endFill=0;" parent="1" source="34" target="22" edge="1">
                    <mxGeometry relative="1" as="geometry">
                        <Array as="points">
                            <mxPoint x="123" y="347"/>
                            <mxPoint x="123" y="157"/>
                        </Array>
                    </mxGeometry>
                </mxCell>
                <mxCell id="34" value="&lt;font color=&quot;#030303&quot;&gt;User&lt;/font&gt;" style="shape=umlActor;verticalLabelPosition=bottom;verticalAlign=top;html=1;fillColor=none;strokeColor=#030303;" parent="1" vertex="1">
                    <mxGeometry x="66" y="317" width="30" height="60" as="geometry"/>
                </mxCell>
                <mxCell id="62" style="edgeStyle=orthogonalEdgeStyle;rounded=0;orthogonalLoop=1;jettySize=auto;html=1;dashed=1;startArrow=classic;startFill=1;endArrow=none;endFill=0;strokeColor=#FFFFFF;" edge="1" parent="1" source="61" target="8">
                    <mxGeometry relative="1" as="geometry"/>
                </mxCell>
                <mxCell id="63" style="edgeStyle=orthogonalEdgeStyle;rounded=0;orthogonalLoop=1;jettySize=auto;html=1;startArrow=none;startFill=0;endArrow=none;endFill=0;strokeColor=#030303;" edge="1" parent="1" source="61" target="8">
                    <mxGeometry relative="1" as="geometry">
                        <Array as="points">
                            <mxPoint x="168" y="722"/>
                            <mxPoint x="168" y="495"/>
                        </Array>
                    </mxGeometry>
                </mxCell>
            </root>
        </mxGraphModel>
    </diagram>
</mxfile>